<mxfile host="app.diagrams.net" modified="2021-07-15T09:59:50.002Z" agent="5.0 (Windows NT 10.0; Win64; x64) AppleWebKit/537.36 (KHTML, like Gecko) Chrome/91.0.4472.124 Safari/537.36 Edg/91.0.864.67" etag="2TwWTDDUwdVFdV3Kbl9g" version="14.8.6" type="github">
  <diagram id="C5RBs43oDa-KdzZeNtuy" name="Page-1">
    <mxGraphModel dx="1944" dy="1838" grid="1" gridSize="10" guides="1" tooltips="1" connect="1" arrows="1" fold="1" page="1" pageScale="1" pageWidth="827" pageHeight="1169" math="0" shadow="0">
      <root>
        <mxCell id="WIyWlLk6GJQsqaUBKTNV-0" />
        <mxCell id="WIyWlLk6GJQsqaUBKTNV-1" parent="WIyWlLk6GJQsqaUBKTNV-0" />
        <mxCell id="NO1Vk06DadakkfYRaAfT-4" value="Runner" style="swimlane;fontStyle=0;childLayout=stackLayout;horizontal=1;startSize=26;fillColor=none;horizontalStack=0;resizeParent=1;resizeParentMax=0;resizeLast=0;collapsible=1;marginBottom=0;" vertex="1" parent="WIyWlLk6GJQsqaUBKTNV-1">
          <mxGeometry x="-30" y="204" width="140" height="86" as="geometry" />
        </mxCell>
        <mxCell id="NO1Vk06DadakkfYRaAfT-8" value="IMS" style="swimlane;fontStyle=1;align=center;verticalAlign=top;childLayout=stackLayout;horizontal=1;startSize=26;horizontalStack=0;resizeParent=1;resizeParentMax=0;resizeLast=0;collapsible=1;marginBottom=0;" vertex="1" parent="WIyWlLk6GJQsqaUBKTNV-1">
          <mxGeometry x="200" y="160" width="240" height="366" as="geometry" />
        </mxCell>
        <mxCell id="NO1Vk06DadakkfYRaAfT-9" value="-customers:CustomerController(readOnly)" style="text;strokeColor=none;fillColor=none;align=left;verticalAlign=top;spacingLeft=4;spacingRight=4;overflow=hidden;rotatable=0;points=[[0,0.5],[1,0.5]];portConstraint=eastwest;" vertex="1" parent="NO1Vk06DadakkfYRaAfT-8">
          <mxGeometry y="26" width="240" height="30" as="geometry" />
        </mxCell>
        <mxCell id="NO1Vk06DadakkfYRaAfT-15" value="-LOGGER:Logger(readOnly)" style="text;strokeColor=none;fillColor=none;align=left;verticalAlign=top;spacingLeft=4;spacingRight=4;overflow=hidden;rotatable=0;points=[[0,0.5],[1,0.5]];portConstraint=eastwest;" vertex="1" parent="NO1Vk06DadakkfYRaAfT-8">
          <mxGeometry y="56" width="240" height="26" as="geometry" />
        </mxCell>
        <mxCell id="NO1Vk06DadakkfYRaAfT-14" value="-utils:Utils(readOnly)" style="text;strokeColor=none;fillColor=none;align=left;verticalAlign=top;spacingLeft=4;spacingRight=4;overflow=hidden;rotatable=0;points=[[0,0.5],[1,0.5]];portConstraint=eastwest;" vertex="1" parent="NO1Vk06DadakkfYRaAfT-8">
          <mxGeometry y="82" width="240" height="26" as="geometry" />
        </mxCell>
        <mxCell id="NO1Vk06DadakkfYRaAfT-13" value="-orders:OrderController(readOnly)" style="text;strokeColor=none;fillColor=none;align=left;verticalAlign=top;spacingLeft=4;spacingRight=4;overflow=hidden;rotatable=0;points=[[0,0.5],[1,0.5]];portConstraint=eastwest;" vertex="1" parent="NO1Vk06DadakkfYRaAfT-8">
          <mxGeometry y="108" width="240" height="26" as="geometry" />
        </mxCell>
        <mxCell id="NO1Vk06DadakkfYRaAfT-12" value="-items:ItemController(readOnly)" style="text;strokeColor=none;fillColor=none;align=left;verticalAlign=top;spacingLeft=4;spacingRight=4;overflow=hidden;rotatable=0;points=[[0,0.5],[1,0.5]];portConstraint=eastwest;" vertex="1" parent="NO1Vk06DadakkfYRaAfT-8">
          <mxGeometry y="134" width="240" height="26" as="geometry" />
        </mxCell>
        <mxCell id="NO1Vk06DadakkfYRaAfT-10" value="" style="line;strokeWidth=1;fillColor=none;align=left;verticalAlign=middle;spacingTop=-1;spacingLeft=3;spacingRight=3;rotatable=0;labelPosition=right;points=[];portConstraint=eastwest;" vertex="1" parent="NO1Vk06DadakkfYRaAfT-8">
          <mxGeometry y="160" width="240" height="8" as="geometry" />
        </mxCell>
        <mxCell id="NO1Vk06DadakkfYRaAfT-11" value="+IMS" style="text;strokeColor=none;fillColor=none;align=left;verticalAlign=top;spacingLeft=4;spacingRight=4;overflow=hidden;rotatable=0;points=[[0,0.5],[1,0.5]];portConstraint=eastwest;" vertex="1" parent="NO1Vk06DadakkfYRaAfT-8">
          <mxGeometry y="168" width="240" height="122" as="geometry" />
        </mxCell>
        <mxCell id="NO1Vk06DadakkfYRaAfT-27" value="+doAction(CrudController&lt;?&gt;,Action):void" style="text;strokeColor=none;fillColor=none;align=left;verticalAlign=top;spacingLeft=4;spacingRight=4;overflow=hidden;rotatable=0;points=[[0,0.5],[1,0.5]];portConstraint=eastwest;" vertex="1" parent="NO1Vk06DadakkfYRaAfT-8">
          <mxGeometry y="290" width="240" height="50" as="geometry" />
        </mxCell>
        <mxCell id="NO1Vk06DadakkfYRaAfT-29" value="+doAction(CrudController&lt;?&gt;Action):void" style="text;strokeColor=none;fillColor=none;align=left;verticalAlign=top;spacingLeft=4;spacingRight=4;overflow=hidden;rotatable=0;points=[[0,0.5],[1,0.5]];portConstraint=eastwest;" vertex="1" parent="NO1Vk06DadakkfYRaAfT-8">
          <mxGeometry y="340" width="240" height="26" as="geometry" />
        </mxCell>
        <mxCell id="NO1Vk06DadakkfYRaAfT-16" value="Customer Controller" style="swimlane;fontStyle=1;align=center;verticalAlign=top;childLayout=stackLayout;horizontal=1;startSize=26;horizontalStack=0;resizeParent=1;resizeParentMax=0;resizeLast=0;collapsible=1;marginBottom=0;" vertex="1" parent="WIyWlLk6GJQsqaUBKTNV-1">
          <mxGeometry x="490" y="70" width="240" height="142" as="geometry" />
        </mxCell>
        <mxCell id="NO1Vk06DadakkfYRaAfT-17" value="-customerDAO:CustomerDAO" style="text;strokeColor=none;fillColor=none;align=left;verticalAlign=top;spacingLeft=4;spacingRight=4;overflow=hidden;rotatable=0;points=[[0,0.5],[1,0.5]];portConstraint=eastwest;" vertex="1" parent="NO1Vk06DadakkfYRaAfT-16">
          <mxGeometry y="26" width="240" height="30" as="geometry" />
        </mxCell>
        <mxCell id="NO1Vk06DadakkfYRaAfT-18" value="-LOGGER:Logger(readOnly)" style="text;strokeColor=none;fillColor=none;align=left;verticalAlign=top;spacingLeft=4;spacingRight=4;overflow=hidden;rotatable=0;points=[[0,0.5],[1,0.5]];portConstraint=eastwest;" vertex="1" parent="NO1Vk06DadakkfYRaAfT-16">
          <mxGeometry y="56" width="240" height="26" as="geometry" />
        </mxCell>
        <mxCell id="NO1Vk06DadakkfYRaAfT-19" value="-utils:Utils(readOnly)" style="text;strokeColor=none;fillColor=none;align=left;verticalAlign=top;spacingLeft=4;spacingRight=4;overflow=hidden;rotatable=0;points=[[0,0.5],[1,0.5]];portConstraint=eastwest;" vertex="1" parent="NO1Vk06DadakkfYRaAfT-16">
          <mxGeometry y="82" width="240" height="26" as="geometry" />
        </mxCell>
        <mxCell id="NO1Vk06DadakkfYRaAfT-22" value="" style="line;strokeWidth=1;fillColor=none;align=left;verticalAlign=middle;spacingTop=-1;spacingLeft=3;spacingRight=3;rotatable=0;labelPosition=right;points=[];portConstraint=eastwest;" vertex="1" parent="NO1Vk06DadakkfYRaAfT-16">
          <mxGeometry y="108" width="240" height="8" as="geometry" />
        </mxCell>
        <mxCell id="NO1Vk06DadakkfYRaAfT-23" value="+ method(type): type" style="text;strokeColor=none;fillColor=none;align=left;verticalAlign=top;spacingLeft=4;spacingRight=4;overflow=hidden;rotatable=0;points=[[0,0.5],[1,0.5]];portConstraint=eastwest;" vertex="1" parent="NO1Vk06DadakkfYRaAfT-16">
          <mxGeometry y="116" width="240" height="26" as="geometry" />
        </mxCell>
        <mxCell id="NO1Vk06DadakkfYRaAfT-24" value="+imsSystem():void" style="text;strokeColor=none;fillColor=none;align=left;verticalAlign=top;spacingLeft=4;spacingRight=4;overflow=hidden;rotatable=0;points=[[0,0.5],[1,0.5]];portConstraint=eastwest;" vertex="1" parent="WIyWlLk6GJQsqaUBKTNV-1">
          <mxGeometry x="210" y="350" width="230" height="26" as="geometry" />
        </mxCell>
        <mxCell id="NO1Vk06DadakkfYRaAfT-26" value="" style="edgeStyle=orthogonalEdgeStyle;rounded=0;orthogonalLoop=1;jettySize=auto;html=1;" edge="1" parent="WIyWlLk6GJQsqaUBKTNV-1" source="NO1Vk06DadakkfYRaAfT-25" target="NO1Vk06DadakkfYRaAfT-24">
          <mxGeometry relative="1" as="geometry">
            <Array as="points">
              <mxPoint x="330" y="400" />
            </Array>
          </mxGeometry>
        </mxCell>
        <mxCell id="NO1Vk06DadakkfYRaAfT-90" value="" style="edgeStyle=orthogonalEdgeStyle;rounded=0;orthogonalLoop=1;jettySize=auto;html=1;" edge="1" parent="WIyWlLk6GJQsqaUBKTNV-1" source="NO1Vk06DadakkfYRaAfT-25" target="NO1Vk06DadakkfYRaAfT-41">
          <mxGeometry relative="1" as="geometry" />
        </mxCell>
        <mxCell id="NO1Vk06DadakkfYRaAfT-25" value="+domainAction(Domain):void" style="text;strokeColor=none;fillColor=none;align=left;verticalAlign=top;spacingLeft=4;spacingRight=4;overflow=hidden;rotatable=0;points=[[0,0.5],[1,0.5]];portConstraint=eastwest;" vertex="1" parent="WIyWlLk6GJQsqaUBKTNV-1">
          <mxGeometry x="210" y="376" width="230" height="26" as="geometry" />
        </mxCell>
        <mxCell id="NO1Vk06DadakkfYRaAfT-30" value="Order Controller" style="swimlane;fontStyle=1;align=center;verticalAlign=top;childLayout=stackLayout;horizontal=1;startSize=26;horizontalStack=0;resizeParent=1;resizeParentMax=0;resizeLast=0;collapsible=1;marginBottom=0;" vertex="1" parent="WIyWlLk6GJQsqaUBKTNV-1">
          <mxGeometry x="500" y="500" width="240" height="142" as="geometry" />
        </mxCell>
        <mxCell id="NO1Vk06DadakkfYRaAfT-31" value="-orderDAO:OrderDAO" style="text;strokeColor=none;fillColor=none;align=left;verticalAlign=top;spacingLeft=4;spacingRight=4;overflow=hidden;rotatable=0;points=[[0,0.5],[1,0.5]];portConstraint=eastwest;" vertex="1" parent="NO1Vk06DadakkfYRaAfT-30">
          <mxGeometry y="26" width="240" height="30" as="geometry" />
        </mxCell>
        <mxCell id="NO1Vk06DadakkfYRaAfT-32" value="-LOGGER:Logger(readOnly)" style="text;strokeColor=none;fillColor=none;align=left;verticalAlign=top;spacingLeft=4;spacingRight=4;overflow=hidden;rotatable=0;points=[[0,0.5],[1,0.5]];portConstraint=eastwest;" vertex="1" parent="NO1Vk06DadakkfYRaAfT-30">
          <mxGeometry y="56" width="240" height="26" as="geometry" />
        </mxCell>
        <mxCell id="NO1Vk06DadakkfYRaAfT-33" value="-utils:Utils(readOnly)" style="text;strokeColor=none;fillColor=none;align=left;verticalAlign=top;spacingLeft=4;spacingRight=4;overflow=hidden;rotatable=0;points=[[0,0.5],[1,0.5]];portConstraint=eastwest;" vertex="1" parent="NO1Vk06DadakkfYRaAfT-30">
          <mxGeometry y="82" width="240" height="26" as="geometry" />
        </mxCell>
        <mxCell id="NO1Vk06DadakkfYRaAfT-34" value="" style="line;strokeWidth=1;fillColor=none;align=left;verticalAlign=middle;spacingTop=-1;spacingLeft=3;spacingRight=3;rotatable=0;labelPosition=right;points=[];portConstraint=eastwest;" vertex="1" parent="NO1Vk06DadakkfYRaAfT-30">
          <mxGeometry y="108" width="240" height="8" as="geometry" />
        </mxCell>
        <mxCell id="NO1Vk06DadakkfYRaAfT-35" value="+OrderController(OrderDAO)" style="text;strokeColor=none;fillColor=none;align=left;verticalAlign=top;spacingLeft=4;spacingRight=4;overflow=hidden;rotatable=0;points=[[0,0.5],[1,0.5]];portConstraint=eastwest;" vertex="1" parent="NO1Vk06DadakkfYRaAfT-30">
          <mxGeometry y="116" width="240" height="26" as="geometry" />
        </mxCell>
        <mxCell id="NO1Vk06DadakkfYRaAfT-36" value="Item Controller" style="swimlane;fontStyle=1;align=center;verticalAlign=top;childLayout=stackLayout;horizontal=1;startSize=26;horizontalStack=0;resizeParent=1;resizeParentMax=0;resizeLast=0;collapsible=1;marginBottom=0;" vertex="1" parent="WIyWlLk6GJQsqaUBKTNV-1">
          <mxGeometry x="490" y="300" width="240" height="142" as="geometry" />
        </mxCell>
        <mxCell id="NO1Vk06DadakkfYRaAfT-37" value="-ItemDAO:ItemDAO" style="text;strokeColor=none;fillColor=none;align=left;verticalAlign=top;spacingLeft=4;spacingRight=4;overflow=hidden;rotatable=0;points=[[0,0.5],[1,0.5]];portConstraint=eastwest;" vertex="1" parent="NO1Vk06DadakkfYRaAfT-36">
          <mxGeometry y="26" width="240" height="30" as="geometry" />
        </mxCell>
        <mxCell id="NO1Vk06DadakkfYRaAfT-38" value="-LOGGER:Logger(readOnly)" style="text;strokeColor=none;fillColor=none;align=left;verticalAlign=top;spacingLeft=4;spacingRight=4;overflow=hidden;rotatable=0;points=[[0,0.5],[1,0.5]];portConstraint=eastwest;" vertex="1" parent="NO1Vk06DadakkfYRaAfT-36">
          <mxGeometry y="56" width="240" height="26" as="geometry" />
        </mxCell>
        <mxCell id="NO1Vk06DadakkfYRaAfT-39" value="-utils:Utils(readOnly)" style="text;strokeColor=none;fillColor=none;align=left;verticalAlign=top;spacingLeft=4;spacingRight=4;overflow=hidden;rotatable=0;points=[[0,0.5],[1,0.5]];portConstraint=eastwest;" vertex="1" parent="NO1Vk06DadakkfYRaAfT-36">
          <mxGeometry y="82" width="240" height="26" as="geometry" />
        </mxCell>
        <mxCell id="NO1Vk06DadakkfYRaAfT-40" value="" style="line;strokeWidth=1;fillColor=none;align=left;verticalAlign=middle;spacingTop=-1;spacingLeft=3;spacingRight=3;rotatable=0;labelPosition=right;points=[];portConstraint=eastwest;" vertex="1" parent="NO1Vk06DadakkfYRaAfT-36">
          <mxGeometry y="108" width="240" height="8" as="geometry" />
        </mxCell>
        <mxCell id="NO1Vk06DadakkfYRaAfT-41" value="+ItemController(ItemDAO)" style="text;strokeColor=none;fillColor=none;align=left;verticalAlign=top;spacingLeft=4;spacingRight=4;overflow=hidden;rotatable=0;points=[[0,0.5],[1,0.5]];portConstraint=eastwest;" vertex="1" parent="NO1Vk06DadakkfYRaAfT-36">
          <mxGeometry y="116" width="240" height="26" as="geometry" />
        </mxCell>
        <mxCell id="NO1Vk06DadakkfYRaAfT-42" value="CustomerDAO" style="swimlane;fontStyle=1;align=center;verticalAlign=top;childLayout=stackLayout;horizontal=1;startSize=26;horizontalStack=0;resizeParent=1;resizeParentMax=0;resizeLast=0;collapsible=1;marginBottom=0;" vertex="1" parent="WIyWlLk6GJQsqaUBKTNV-1">
          <mxGeometry x="770" y="70" width="240" height="90" as="geometry" />
        </mxCell>
        <mxCell id="NO1Vk06DadakkfYRaAfT-43" value="DataSource:dataSource" style="text;strokeColor=none;fillColor=none;align=left;verticalAlign=top;spacingLeft=4;spacingRight=4;overflow=hidden;rotatable=0;points=[[0,0.5],[1,0.5]];portConstraint=eastwest;" vertex="1" parent="NO1Vk06DadakkfYRaAfT-42">
          <mxGeometry y="26" width="240" height="30" as="geometry" />
        </mxCell>
        <mxCell id="NO1Vk06DadakkfYRaAfT-44" value="-LOGGER:Logger(readOnly)" style="text;strokeColor=none;fillColor=none;align=left;verticalAlign=top;spacingLeft=4;spacingRight=4;overflow=hidden;rotatable=0;points=[[0,0.5],[1,0.5]];portConstraint=eastwest;" vertex="1" parent="NO1Vk06DadakkfYRaAfT-42">
          <mxGeometry y="56" width="240" height="26" as="geometry" />
        </mxCell>
        <mxCell id="NO1Vk06DadakkfYRaAfT-46" value="" style="line;strokeWidth=1;fillColor=none;align=left;verticalAlign=middle;spacingTop=-1;spacingLeft=3;spacingRight=3;rotatable=0;labelPosition=right;points=[];portConstraint=eastwest;" vertex="1" parent="NO1Vk06DadakkfYRaAfT-42">
          <mxGeometry y="82" width="240" height="8" as="geometry" />
        </mxCell>
        <mxCell id="NO1Vk06DadakkfYRaAfT-48" value="OrderDAO" style="swimlane;fontStyle=1;align=center;verticalAlign=top;childLayout=stackLayout;horizontal=1;startSize=26;horizontalStack=0;resizeParent=1;resizeParentMax=0;resizeLast=0;collapsible=1;marginBottom=0;" vertex="1" parent="WIyWlLk6GJQsqaUBKTNV-1">
          <mxGeometry x="780" y="470" width="240" height="90" as="geometry" />
        </mxCell>
        <mxCell id="NO1Vk06DadakkfYRaAfT-49" value="DataSource:dataSource" style="text;strokeColor=none;fillColor=none;align=left;verticalAlign=top;spacingLeft=4;spacingRight=4;overflow=hidden;rotatable=0;points=[[0,0.5],[1,0.5]];portConstraint=eastwest;" vertex="1" parent="NO1Vk06DadakkfYRaAfT-48">
          <mxGeometry y="26" width="240" height="30" as="geometry" />
        </mxCell>
        <mxCell id="NO1Vk06DadakkfYRaAfT-50" value="-LOGGER:Logger(readOnly)" style="text;strokeColor=none;fillColor=none;align=left;verticalAlign=top;spacingLeft=4;spacingRight=4;overflow=hidden;rotatable=0;points=[[0,0.5],[1,0.5]];portConstraint=eastwest;" vertex="1" parent="NO1Vk06DadakkfYRaAfT-48">
          <mxGeometry y="56" width="240" height="26" as="geometry" />
        </mxCell>
        <mxCell id="NO1Vk06DadakkfYRaAfT-52" value="" style="line;strokeWidth=1;fillColor=none;align=left;verticalAlign=middle;spacingTop=-1;spacingLeft=3;spacingRight=3;rotatable=0;labelPosition=right;points=[];portConstraint=eastwest;" vertex="1" parent="NO1Vk06DadakkfYRaAfT-48">
          <mxGeometry y="82" width="240" height="8" as="geometry" />
        </mxCell>
        <mxCell id="NO1Vk06DadakkfYRaAfT-54" value="ItemDAO" style="swimlane;fontStyle=1;align=center;verticalAlign=top;childLayout=stackLayout;horizontal=1;startSize=26;horizontalStack=0;resizeParent=1;resizeParentMax=0;resizeLast=0;collapsible=1;marginBottom=0;" vertex="1" parent="WIyWlLk6GJQsqaUBKTNV-1">
          <mxGeometry x="780" y="275" width="240" height="116" as="geometry" />
        </mxCell>
        <mxCell id="NO1Vk06DadakkfYRaAfT-55" value="DataSource:dataSource" style="text;strokeColor=none;fillColor=none;align=left;verticalAlign=top;spacingLeft=4;spacingRight=4;overflow=hidden;rotatable=0;points=[[0,0.5],[1,0.5]];portConstraint=eastwest;" vertex="1" parent="NO1Vk06DadakkfYRaAfT-54">
          <mxGeometry y="26" width="240" height="30" as="geometry" />
        </mxCell>
        <mxCell id="NO1Vk06DadakkfYRaAfT-56" value="-LOGGER:Logger(readOnly)" style="text;strokeColor=none;fillColor=none;align=left;verticalAlign=top;spacingLeft=4;spacingRight=4;overflow=hidden;rotatable=0;points=[[0,0.5],[1,0.5]];portConstraint=eastwest;" vertex="1" parent="NO1Vk06DadakkfYRaAfT-54">
          <mxGeometry y="56" width="240" height="26" as="geometry" />
        </mxCell>
        <mxCell id="NO1Vk06DadakkfYRaAfT-58" value="" style="line;strokeWidth=1;fillColor=none;align=left;verticalAlign=middle;spacingTop=-1;spacingLeft=3;spacingRight=3;rotatable=0;labelPosition=right;points=[];portConstraint=eastwest;" vertex="1" parent="NO1Vk06DadakkfYRaAfT-54">
          <mxGeometry y="82" width="240" height="8" as="geometry" />
        </mxCell>
        <mxCell id="NO1Vk06DadakkfYRaAfT-59" value="+ method(type): type" style="text;strokeColor=none;fillColor=none;align=left;verticalAlign=top;spacingLeft=4;spacingRight=4;overflow=hidden;rotatable=0;points=[[0,0.5],[1,0.5]];portConstraint=eastwest;" vertex="1" parent="NO1Vk06DadakkfYRaAfT-54">
          <mxGeometry y="90" width="240" height="26" as="geometry" />
        </mxCell>
        <mxCell id="NO1Vk06DadakkfYRaAfT-60" value="&lt;&lt;DAO&gt;&gt;" style="swimlane;fontStyle=1;align=center;verticalAlign=top;childLayout=stackLayout;horizontal=1;startSize=26;horizontalStack=0;resizeParent=1;resizeParentMax=0;resizeLast=0;collapsible=1;marginBottom=0;" vertex="1" parent="WIyWlLk6GJQsqaUBKTNV-1">
          <mxGeometry x="1050" y="90" width="240" height="194" as="geometry" />
        </mxCell>
        <mxCell id="NO1Vk06DadakkfYRaAfT-61" value="readAll():List&lt;T&gt;" style="text;strokeColor=none;fillColor=none;align=left;verticalAlign=top;spacingLeft=4;spacingRight=4;overflow=hidden;rotatable=0;points=[[0,0.5],[1,0.5]];portConstraint=eastwest;" vertex="1" parent="NO1Vk06DadakkfYRaAfT-60">
          <mxGeometry y="26" width="240" height="30" as="geometry" />
        </mxCell>
        <mxCell id="NO1Vk06DadakkfYRaAfT-62" value="read(Long id):T" style="text;strokeColor=none;fillColor=none;align=left;verticalAlign=top;spacingLeft=4;spacingRight=4;overflow=hidden;rotatable=0;points=[[0,0.5],[1,0.5]];portConstraint=eastwest;" vertex="1" parent="NO1Vk06DadakkfYRaAfT-60">
          <mxGeometry y="56" width="240" height="26" as="geometry" />
        </mxCell>
        <mxCell id="NO1Vk06DadakkfYRaAfT-64" value="create(T t):T&#xa;" style="text;strokeColor=none;fillColor=none;align=left;verticalAlign=top;spacingLeft=4;spacingRight=4;overflow=hidden;rotatable=0;points=[[0,0.5],[1,0.5]];portConstraint=eastwest;" vertex="1" parent="NO1Vk06DadakkfYRaAfT-60">
          <mxGeometry y="82" width="240" height="26" as="geometry" />
        </mxCell>
        <mxCell id="NO1Vk06DadakkfYRaAfT-65" value="update(T t):T" style="text;strokeColor=none;fillColor=none;align=left;verticalAlign=top;spacingLeft=4;spacingRight=4;overflow=hidden;rotatable=0;points=[[0,0.5],[1,0.5]];portConstraint=eastwest;" vertex="1" parent="NO1Vk06DadakkfYRaAfT-60">
          <mxGeometry y="108" width="240" height="26" as="geometry" />
        </mxCell>
        <mxCell id="NO1Vk06DadakkfYRaAfT-66" value="delete(T t):T" style="text;strokeColor=none;fillColor=none;align=left;verticalAlign=top;spacingLeft=4;spacingRight=4;overflow=hidden;rotatable=0;points=[[0,0.5],[1,0.5]];portConstraint=eastwest;" vertex="1" parent="NO1Vk06DadakkfYRaAfT-60">
          <mxGeometry y="134" width="240" height="26" as="geometry" />
        </mxCell>
        <mxCell id="NO1Vk06DadakkfYRaAfT-67" value="modelFromResultSet(ResultSet):Customer" style="text;strokeColor=none;fillColor=none;align=left;verticalAlign=top;spacingLeft=4;spacingRight=4;overflow=hidden;rotatable=0;points=[[0,0.5],[1,0.5]];portConstraint=eastwest;" vertex="1" parent="NO1Vk06DadakkfYRaAfT-60">
          <mxGeometry y="160" width="240" height="26" as="geometry" />
        </mxCell>
        <mxCell id="NO1Vk06DadakkfYRaAfT-63" value="" style="line;strokeWidth=1;fillColor=none;align=left;verticalAlign=middle;spacingTop=-1;spacingLeft=3;spacingRight=3;rotatable=0;labelPosition=right;points=[];portConstraint=eastwest;" vertex="1" parent="NO1Vk06DadakkfYRaAfT-60">
          <mxGeometry y="186" width="240" height="8" as="geometry" />
        </mxCell>
        <mxCell id="NO1Vk06DadakkfYRaAfT-68" value="&lt;&lt;CrudController&gt;&gt;" style="swimlane;fontStyle=1;align=center;verticalAlign=top;childLayout=stackLayout;horizontal=1;startSize=26;horizontalStack=0;resizeParent=1;resizeParentMax=0;resizeLast=0;collapsible=1;marginBottom=0;" vertex="1" parent="WIyWlLk6GJQsqaUBKTNV-1">
          <mxGeometry x="220" y="-52" width="240" height="142" as="geometry" />
        </mxCell>
        <mxCell id="NO1Vk06DadakkfYRaAfT-69" value="readAll():List&lt;T&gt;" style="text;strokeColor=none;fillColor=none;align=left;verticalAlign=top;spacingLeft=4;spacingRight=4;overflow=hidden;rotatable=0;points=[[0,0.5],[1,0.5]];portConstraint=eastwest;" vertex="1" parent="NO1Vk06DadakkfYRaAfT-68">
          <mxGeometry y="26" width="240" height="30" as="geometry" />
        </mxCell>
        <mxCell id="NO1Vk06DadakkfYRaAfT-75" value="create():T" style="text;strokeColor=none;fillColor=none;align=left;verticalAlign=top;spacingLeft=4;spacingRight=4;overflow=hidden;rotatable=0;points=[[0,0.5],[1,0.5]];portConstraint=eastwest;" vertex="1" parent="NO1Vk06DadakkfYRaAfT-68">
          <mxGeometry y="56" width="240" height="26" as="geometry" />
        </mxCell>
        <mxCell id="NO1Vk06DadakkfYRaAfT-76" value="update():T" style="text;strokeColor=none;fillColor=none;align=left;verticalAlign=top;spacingLeft=4;spacingRight=4;overflow=hidden;rotatable=0;points=[[0,0.5],[1,0.5]];portConstraint=eastwest;" vertex="1" parent="NO1Vk06DadakkfYRaAfT-68">
          <mxGeometry y="82" width="240" height="26" as="geometry" />
        </mxCell>
        <mxCell id="NO1Vk06DadakkfYRaAfT-77" value="delete():T" style="text;strokeColor=none;fillColor=none;align=left;verticalAlign=top;spacingLeft=4;spacingRight=4;overflow=hidden;rotatable=0;points=[[0,0.5],[1,0.5]];portConstraint=eastwest;" vertex="1" parent="NO1Vk06DadakkfYRaAfT-68">
          <mxGeometry y="108" width="240" height="26" as="geometry" />
        </mxCell>
        <mxCell id="NO1Vk06DadakkfYRaAfT-72" value="" style="line;strokeWidth=1;fillColor=none;align=left;verticalAlign=middle;spacingTop=-1;spacingLeft=3;spacingRight=3;rotatable=0;labelPosition=right;points=[];portConstraint=eastwest;" vertex="1" parent="NO1Vk06DadakkfYRaAfT-68">
          <mxGeometry y="134" width="240" height="8" as="geometry" />
        </mxCell>
        <mxCell id="NO1Vk06DadakkfYRaAfT-74" value="+ item: attribute" style="text;strokeColor=none;fillColor=none;align=left;verticalAlign=top;spacingLeft=4;spacingRight=4;overflow=hidden;rotatable=0;points=[[0,0.5],[1,0.5]];portConstraint=eastwest;" vertex="1" parent="WIyWlLk6GJQsqaUBKTNV-1">
          <mxGeometry x="330" y="160" width="100" height="26" as="geometry" />
        </mxCell>
        <mxCell id="NO1Vk06DadakkfYRaAfT-82" value="name" style="endArrow=block;endFill=1;html=1;edgeStyle=orthogonalEdgeStyle;align=left;verticalAlign=top;" edge="1" parent="WIyWlLk6GJQsqaUBKTNV-1">
          <mxGeometry x="-1" relative="1" as="geometry">
            <mxPoint x="110" y="270" as="sourcePoint" />
            <mxPoint x="190" y="270" as="targetPoint" />
          </mxGeometry>
        </mxCell>
        <mxCell id="NO1Vk06DadakkfYRaAfT-83" value="1" style="edgeLabel;resizable=0;html=1;align=left;verticalAlign=bottom;" connectable="0" vertex="1" parent="NO1Vk06DadakkfYRaAfT-82">
          <mxGeometry x="-1" relative="1" as="geometry" />
        </mxCell>
        <mxCell id="NO1Vk06DadakkfYRaAfT-86" value="name" style="endArrow=block;endFill=1;html=1;edgeStyle=orthogonalEdgeStyle;align=left;verticalAlign=top;entryX=0;entryY=0.5;entryDx=0;entryDy=0;" edge="1" parent="WIyWlLk6GJQsqaUBKTNV-1" target="NO1Vk06DadakkfYRaAfT-19">
          <mxGeometry x="-1" relative="1" as="geometry">
            <mxPoint x="440" y="210" as="sourcePoint" />
            <mxPoint x="600" y="210" as="targetPoint" />
          </mxGeometry>
        </mxCell>
        <mxCell id="NO1Vk06DadakkfYRaAfT-87" value="1" style="edgeLabel;resizable=0;html=1;align=left;verticalAlign=bottom;" connectable="0" vertex="1" parent="NO1Vk06DadakkfYRaAfT-86">
          <mxGeometry x="-1" relative="1" as="geometry" />
        </mxCell>
        <mxCell id="NO1Vk06DadakkfYRaAfT-88" value="name" style="endArrow=block;endFill=1;html=1;edgeStyle=orthogonalEdgeStyle;align=left;verticalAlign=top;" edge="1" parent="WIyWlLk6GJQsqaUBKTNV-1">
          <mxGeometry x="-1" relative="1" as="geometry">
            <mxPoint x="260" y="210" as="sourcePoint" />
            <mxPoint x="420" y="210" as="targetPoint" />
          </mxGeometry>
        </mxCell>
        <mxCell id="NO1Vk06DadakkfYRaAfT-89" value="1" style="edgeLabel;resizable=0;html=1;align=left;verticalAlign=bottom;" connectable="0" vertex="1" parent="NO1Vk06DadakkfYRaAfT-88">
          <mxGeometry x="-1" relative="1" as="geometry" />
        </mxCell>
        <mxCell id="NO1Vk06DadakkfYRaAfT-95" value="name" style="endArrow=block;endFill=1;html=1;edgeStyle=orthogonalEdgeStyle;align=left;verticalAlign=top;" edge="1" parent="WIyWlLk6GJQsqaUBKTNV-1">
          <mxGeometry x="-1" relative="1" as="geometry">
            <mxPoint x="350" y="530" as="sourcePoint" />
            <mxPoint x="500" y="540" as="targetPoint" />
            <Array as="points">
              <mxPoint x="500" y="540" />
              <mxPoint x="500" y="540" />
            </Array>
          </mxGeometry>
        </mxCell>
        <mxCell id="NO1Vk06DadakkfYRaAfT-96" value="1" style="edgeLabel;resizable=0;html=1;align=left;verticalAlign=bottom;" connectable="0" vertex="1" parent="NO1Vk06DadakkfYRaAfT-95">
          <mxGeometry x="-1" relative="1" as="geometry" />
        </mxCell>
        <mxCell id="NO1Vk06DadakkfYRaAfT-99" value="name" style="endArrow=block;endFill=1;html=1;edgeStyle=orthogonalEdgeStyle;align=left;verticalAlign=top;" edge="1" parent="WIyWlLk6GJQsqaUBKTNV-1">
          <mxGeometry x="-1" relative="1" as="geometry">
            <mxPoint x="730" y="140" as="sourcePoint" />
            <mxPoint x="770" y="140" as="targetPoint" />
          </mxGeometry>
        </mxCell>
        <mxCell id="NO1Vk06DadakkfYRaAfT-100" value="1" style="edgeLabel;resizable=0;html=1;align=left;verticalAlign=bottom;" connectable="0" vertex="1" parent="NO1Vk06DadakkfYRaAfT-99">
          <mxGeometry x="-1" relative="1" as="geometry" />
        </mxCell>
        <mxCell id="NO1Vk06DadakkfYRaAfT-103" value="name" style="endArrow=block;endFill=1;html=1;edgeStyle=orthogonalEdgeStyle;align=left;verticalAlign=top;" edge="1" parent="WIyWlLk6GJQsqaUBKTNV-1">
          <mxGeometry x="-1" relative="1" as="geometry">
            <mxPoint x="730" y="360" as="sourcePoint" />
            <mxPoint x="770" y="360" as="targetPoint" />
          </mxGeometry>
        </mxCell>
        <mxCell id="NO1Vk06DadakkfYRaAfT-104" value="1" style="edgeLabel;resizable=0;html=1;align=left;verticalAlign=bottom;" connectable="0" vertex="1" parent="NO1Vk06DadakkfYRaAfT-103">
          <mxGeometry x="-1" relative="1" as="geometry" />
        </mxCell>
        <mxCell id="NO1Vk06DadakkfYRaAfT-107" value="name" style="endArrow=block;endFill=1;html=1;edgeStyle=orthogonalEdgeStyle;align=left;verticalAlign=top;" edge="1" parent="WIyWlLk6GJQsqaUBKTNV-1">
          <mxGeometry x="-1" relative="1" as="geometry">
            <mxPoint x="740" y="510" as="sourcePoint" />
            <mxPoint x="780" y="510" as="targetPoint" />
          </mxGeometry>
        </mxCell>
        <mxCell id="NO1Vk06DadakkfYRaAfT-108" value="1" style="edgeLabel;resizable=0;html=1;align=left;verticalAlign=bottom;" connectable="0" vertex="1" parent="NO1Vk06DadakkfYRaAfT-107">
          <mxGeometry x="-1" relative="1" as="geometry" />
        </mxCell>
        <mxCell id="NO1Vk06DadakkfYRaAfT-109" value="name" style="endArrow=block;endFill=1;html=1;edgeStyle=orthogonalEdgeStyle;align=left;verticalAlign=top;" edge="1" parent="WIyWlLk6GJQsqaUBKTNV-1">
          <mxGeometry x="-1" relative="1" as="geometry">
            <mxPoint x="520" y="570" as="sourcePoint" />
            <mxPoint x="460" y="60" as="targetPoint" />
          </mxGeometry>
        </mxCell>
        <mxCell id="NO1Vk06DadakkfYRaAfT-110" value="1" style="edgeLabel;resizable=0;html=1;align=left;verticalAlign=bottom;" connectable="0" vertex="1" parent="NO1Vk06DadakkfYRaAfT-109">
          <mxGeometry x="-1" relative="1" as="geometry" />
        </mxCell>
        <mxCell id="NO1Vk06DadakkfYRaAfT-113" value="Database" style="shape=cube;whiteSpace=wrap;html=1;boundedLbl=1;backgroundOutline=1;darkOpacity=0.05;darkOpacity2=0.1;" vertex="1" parent="WIyWlLk6GJQsqaUBKTNV-1">
          <mxGeometry x="1370" y="180" width="270" height="320" as="geometry" />
        </mxCell>
        <mxCell id="NO1Vk06DadakkfYRaAfT-115" value="Classname" style="swimlane;fontStyle=0;childLayout=stackLayout;horizontal=1;startSize=26;fillColor=none;horizontalStack=0;resizeParent=1;resizeParentMax=0;resizeLast=0;collapsible=1;marginBottom=0;" vertex="1" parent="WIyWlLk6GJQsqaUBKTNV-1">
          <mxGeometry x="360" y="550" width="140" height="104" as="geometry" />
        </mxCell>
        <mxCell id="NO1Vk06DadakkfYRaAfT-116" value="+ field: type" style="text;strokeColor=none;fillColor=none;align=left;verticalAlign=top;spacingLeft=4;spacingRight=4;overflow=hidden;rotatable=0;points=[[0,0.5],[1,0.5]];portConstraint=eastwest;" vertex="1" parent="NO1Vk06DadakkfYRaAfT-115">
          <mxGeometry y="26" width="140" height="26" as="geometry" />
        </mxCell>
        <mxCell id="NO1Vk06DadakkfYRaAfT-117" value="+ field: type" style="text;strokeColor=none;fillColor=none;align=left;verticalAlign=top;spacingLeft=4;spacingRight=4;overflow=hidden;rotatable=0;points=[[0,0.5],[1,0.5]];portConstraint=eastwest;" vertex="1" parent="NO1Vk06DadakkfYRaAfT-115">
          <mxGeometry y="52" width="140" height="26" as="geometry" />
        </mxCell>
        <mxCell id="NO1Vk06DadakkfYRaAfT-118" value="+ field: type" style="text;strokeColor=none;fillColor=none;align=left;verticalAlign=top;spacingLeft=4;spacingRight=4;overflow=hidden;rotatable=0;points=[[0,0.5],[1,0.5]];portConstraint=eastwest;" vertex="1" parent="NO1Vk06DadakkfYRaAfT-115">
          <mxGeometry y="78" width="140" height="26" as="geometry" />
        </mxCell>
        <mxCell id="NO1Vk06DadakkfYRaAfT-119" value="Customer" style="swimlane;fontStyle=0;childLayout=stackLayout;horizontal=1;startSize=26;fillColor=none;horizontalStack=0;resizeParent=1;resizeParentMax=0;resizeLast=0;collapsible=1;marginBottom=0;" vertex="1" parent="WIyWlLk6GJQsqaUBKTNV-1">
          <mxGeometry x="350" y="720" width="140" height="104" as="geometry" />
        </mxCell>
        <mxCell id="NO1Vk06DadakkfYRaAfT-120" value="id:Long" style="text;strokeColor=none;fillColor=none;align=left;verticalAlign=top;spacingLeft=4;spacingRight=4;overflow=hidden;rotatable=0;points=[[0,0.5],[1,0.5]];portConstraint=eastwest;" vertex="1" parent="NO1Vk06DadakkfYRaAfT-119">
          <mxGeometry y="26" width="140" height="26" as="geometry" />
        </mxCell>
        <mxCell id="NO1Vk06DadakkfYRaAfT-121" value="-FirstName:String" style="text;strokeColor=none;fillColor=none;align=left;verticalAlign=top;spacingLeft=4;spacingRight=4;overflow=hidden;rotatable=0;points=[[0,0.5],[1,0.5]];portConstraint=eastwest;" vertex="1" parent="NO1Vk06DadakkfYRaAfT-119">
          <mxGeometry y="52" width="140" height="26" as="geometry" />
        </mxCell>
        <mxCell id="NO1Vk06DadakkfYRaAfT-122" value="-lastName:String" style="text;strokeColor=none;fillColor=none;align=left;verticalAlign=top;spacingLeft=4;spacingRight=4;overflow=hidden;rotatable=0;points=[[0,0.5],[1,0.5]];portConstraint=eastwest;" vertex="1" parent="NO1Vk06DadakkfYRaAfT-119">
          <mxGeometry y="78" width="140" height="26" as="geometry" />
        </mxCell>
        <mxCell id="NO1Vk06DadakkfYRaAfT-123" value="Order" style="swimlane;fontStyle=0;childLayout=stackLayout;horizontal=1;startSize=26;fillColor=none;horizontalStack=0;resizeParent=1;resizeParentMax=0;resizeLast=0;collapsible=1;marginBottom=0;" vertex="1" parent="WIyWlLk6GJQsqaUBKTNV-1">
          <mxGeometry x="590" y="700" width="140" height="196" as="geometry" />
        </mxCell>
        <mxCell id="NO1Vk06DadakkfYRaAfT-124" value="-id:Long" style="text;strokeColor=none;fillColor=none;align=left;verticalAlign=top;spacingLeft=4;spacingRight=4;overflow=hidden;rotatable=0;points=[[0,0.5],[1,0.5]];portConstraint=eastwest;" vertex="1" parent="NO1Vk06DadakkfYRaAfT-123">
          <mxGeometry y="26" width="140" height="26" as="geometry" />
        </mxCell>
        <mxCell id="NO1Vk06DadakkfYRaAfT-125" value="-orderName:String" style="text;strokeColor=none;fillColor=none;align=left;verticalAlign=top;spacingLeft=4;spacingRight=4;overflow=hidden;rotatable=0;points=[[0,0.5],[1,0.5]];portConstraint=eastwest;" vertex="1" parent="NO1Vk06DadakkfYRaAfT-123">
          <mxGeometry y="52" width="140" height="26" as="geometry" />
        </mxCell>
        <mxCell id="NO1Vk06DadakkfYRaAfT-132" value="-Price:Double" style="text;strokeColor=none;fillColor=none;align=left;verticalAlign=top;spacingLeft=4;spacingRight=4;overflow=hidden;rotatable=0;points=[[0,0.5],[1,0.5]];portConstraint=eastwest;" vertex="1" parent="NO1Vk06DadakkfYRaAfT-123">
          <mxGeometry y="78" width="140" height="26" as="geometry" />
        </mxCell>
        <mxCell id="NO1Vk06DadakkfYRaAfT-126" value="-orderStatus:String" style="text;strokeColor=none;fillColor=none;align=left;verticalAlign=top;spacingLeft=4;spacingRight=4;overflow=hidden;rotatable=0;points=[[0,0.5],[1,0.5]];portConstraint=eastwest;" vertex="1" parent="NO1Vk06DadakkfYRaAfT-123">
          <mxGeometry y="104" width="140" height="92" as="geometry" />
        </mxCell>
        <mxCell id="NO1Vk06DadakkfYRaAfT-127" value="Item" style="swimlane;fontStyle=0;childLayout=stackLayout;horizontal=1;startSize=26;fillColor=none;horizontalStack=0;resizeParent=1;resizeParentMax=0;resizeLast=0;collapsible=1;marginBottom=0;" vertex="1" parent="WIyWlLk6GJQsqaUBKTNV-1">
          <mxGeometry x="810" y="720" width="140" height="104" as="geometry" />
        </mxCell>
        <mxCell id="NO1Vk06DadakkfYRaAfT-128" value="-id:Long" style="text;strokeColor=none;fillColor=none;align=left;verticalAlign=top;spacingLeft=4;spacingRight=4;overflow=hidden;rotatable=0;points=[[0,0.5],[1,0.5]];portConstraint=eastwest;" vertex="1" parent="NO1Vk06DadakkfYRaAfT-127">
          <mxGeometry y="26" width="140" height="26" as="geometry" />
        </mxCell>
        <mxCell id="NO1Vk06DadakkfYRaAfT-129" value="-" style="text;strokeColor=none;fillColor=none;align=left;verticalAlign=top;spacingLeft=4;spacingRight=4;overflow=hidden;rotatable=0;points=[[0,0.5],[1,0.5]];portConstraint=eastwest;" vertex="1" parent="NO1Vk06DadakkfYRaAfT-127">
          <mxGeometry y="52" width="140" height="26" as="geometry" />
        </mxCell>
        <mxCell id="NO1Vk06DadakkfYRaAfT-130" value="+ field: type" style="text;strokeColor=none;fillColor=none;align=left;verticalAlign=top;spacingLeft=4;spacingRight=4;overflow=hidden;rotatable=0;points=[[0,0.5],[1,0.5]];portConstraint=eastwest;" vertex="1" parent="NO1Vk06DadakkfYRaAfT-127">
          <mxGeometry y="78" width="140" height="26" as="geometry" />
        </mxCell>
        <mxCell id="NO1Vk06DadakkfYRaAfT-136" value="name" style="endArrow=block;endFill=1;html=1;edgeStyle=orthogonalEdgeStyle;align=left;verticalAlign=top;" edge="1" parent="WIyWlLk6GJQsqaUBKTNV-1">
          <mxGeometry x="-1" relative="1" as="geometry">
            <mxPoint x="490" y="780" as="sourcePoint" />
            <mxPoint x="580" y="790" as="targetPoint" />
          </mxGeometry>
        </mxCell>
        <mxCell id="NO1Vk06DadakkfYRaAfT-137" value="1" style="edgeLabel;resizable=0;html=1;align=left;verticalAlign=bottom;" connectable="0" vertex="1" parent="NO1Vk06DadakkfYRaAfT-136">
          <mxGeometry x="-1" relative="1" as="geometry" />
        </mxCell>
        <mxCell id="NO1Vk06DadakkfYRaAfT-138" value="Use" style="endArrow=open;endSize=12;dashed=1;html=1;" edge="1" parent="WIyWlLk6GJQsqaUBKTNV-1">
          <mxGeometry width="160" relative="1" as="geometry">
            <mxPoint x="450" y="600" as="sourcePoint" />
            <mxPoint x="610" y="600" as="targetPoint" />
          </mxGeometry>
        </mxCell>
        <mxCell id="NO1Vk06DadakkfYRaAfT-139" value="name" style="endArrow=block;endFill=1;html=1;edgeStyle=orthogonalEdgeStyle;align=left;verticalAlign=top;" edge="1" parent="WIyWlLk6GJQsqaUBKTNV-1">
          <mxGeometry x="-1" relative="1" as="geometry">
            <mxPoint x="730" y="790" as="sourcePoint" />
            <mxPoint x="810" y="790" as="targetPoint" />
          </mxGeometry>
        </mxCell>
        <mxCell id="NO1Vk06DadakkfYRaAfT-140" value="1" style="edgeLabel;resizable=0;html=1;align=left;verticalAlign=bottom;" connectable="0" vertex="1" parent="NO1Vk06DadakkfYRaAfT-139">
          <mxGeometry x="-1" relative="1" as="geometry" />
        </mxCell>
        <mxCell id="NO1Vk06DadakkfYRaAfT-141" value="1" style="endArrow=open;html=1;endSize=12;startArrow=diamondThin;startSize=14;startFill=1;edgeStyle=orthogonalEdgeStyle;align=left;verticalAlign=bottom;" edge="1" parent="WIyWlLk6GJQsqaUBKTNV-1">
          <mxGeometry x="-1" y="3" relative="1" as="geometry">
            <mxPoint x="1220" y="310" as="sourcePoint" />
            <mxPoint x="1380" y="310" as="targetPoint" />
          </mxGeometry>
        </mxCell>
      </root>
    </mxGraphModel>
  </diagram>
</mxfile>
